<svg width="33" height="33" viewBox="0 0 33 33" fill="none" xmlns="http://www.w3.org/2000/svg">
<path d="M16.4998 12.2043C14.1344 12.2043 12.204 14.1346 12.204 16.5001C12.204 18.8655 14.1344 20.7959 16.4998 20.7959C18.8652 20.7959 20.7956 18.8655 20.7956 16.5001C20.7956 14.1346 18.8652 12.2043 16.4998 12.2043ZM29.384 16.5001C29.384 14.7212 29.4001 12.9584 29.3002 11.1827C29.2003 9.1202 28.7298 7.28973 27.2216 5.78152C25.7101 4.2701 23.8829 3.80281 21.8204 3.70291C20.0415 3.60301 18.2787 3.61912 16.503 3.61912C14.7241 3.61912 12.9613 3.60301 11.1856 3.70291C9.12313 3.80281 7.29266 4.27332 5.78445 5.78152C4.27303 7.29295 3.80574 9.1202 3.70584 11.1827C3.60594 12.9616 3.62205 14.7244 3.62205 16.5001C3.62205 18.2758 3.60594 20.0418 3.70584 21.8175C3.80574 23.88 4.27625 25.7104 5.78445 27.2186C7.29588 28.7301 9.12313 29.1973 11.1856 29.2972C12.9645 29.3971 14.7273 29.381 16.503 29.381C18.2819 29.381 20.0447 29.3971 21.8204 29.2972C23.8829 29.1973 25.7134 28.7268 27.2216 27.2186C28.733 25.7072 29.2003 23.88 29.3002 21.8175C29.4033 20.0418 29.384 18.279 29.384 16.5001ZM16.4998 23.1097C12.8421 23.1097 9.89012 20.1578 9.89012 16.5001C9.89012 12.8424 12.8421 9.89041 16.4998 9.89041C20.1575 9.89041 23.1095 12.8424 23.1095 16.5001C23.1095 20.1578 20.1575 23.1097 16.4998 23.1097ZM23.3802 11.1634C22.5262 11.1634 21.8365 10.4737 21.8365 9.61971C21.8365 8.7657 22.5262 8.07606 23.3802 8.07606C24.2342 8.07606 24.9238 8.7657 24.9238 9.61971C24.9241 9.82249 24.8843 10.0233 24.8068 10.2107C24.7293 10.3981 24.6156 10.5684 24.4723 10.7118C24.3289 10.8552 24.1586 10.9689 23.9712 11.0464C23.7838 11.1239 23.5829 11.1636 23.3802 11.1634Z" fill="white"/>
</svg>
