<svg width="24" height="24" viewBox="0 0 24 24" fill="none" xmlns="http://www.w3.org/2000/svg">
<path d="M12.2617 5.98463C8.92302 5.98463 6.26249 8.69733 6.26249 11.9839C6.26249 15.3226 8.92302 17.9831 12.2617 17.9831C15.5483 17.9831 18.261 15.3226 18.261 11.9839C18.261 8.69733 15.5483 5.98463 12.2617 5.98463ZM12.2617 15.8964C10.1229 15.8964 8.34918 14.1749 8.34918 11.9839C8.34918 9.84501 10.0707 8.12349 12.2617 8.12349C14.4006 8.12349 16.1221 9.84501 16.1221 11.9839C16.1221 14.1749 14.4006 15.8964 12.2617 15.8964ZM19.8782 5.77596C19.8782 4.99345 19.2522 4.36744 18.4696 4.36744C17.6871 4.36744 17.0611 4.99345 17.0611 5.77596C17.0611 6.55847 17.6871 7.18448 18.4696 7.18448C19.2522 7.18448 19.8782 6.55847 19.8782 5.77596ZM23.8429 7.18448C23.7385 5.30645 23.3212 3.6371 21.9649 2.28075C20.6085 0.924394 18.9392 0.507055 17.0611 0.402721C15.1309 0.298386 9.34036 0.298386 7.41017 0.402721C5.53215 0.507055 3.91496 0.924394 2.50644 2.28075C1.15009 3.6371 0.73275 5.30645 0.628416 7.18448C0.524081 9.11467 0.524081 14.9052 0.628416 16.8354C0.73275 18.7135 1.15009 20.3306 2.50644 21.7392C3.91496 23.0955 5.53215 23.5129 7.41017 23.6172C9.34036 23.7215 15.1309 23.7215 17.0611 23.6172C18.9392 23.5129 20.6085 23.0955 21.9649 21.7392C23.3212 20.3306 23.7385 18.7135 23.8429 16.8354C23.9472 14.9052 23.9472 9.11467 23.8429 7.18448ZM21.3388 18.87C20.9737 19.9133 20.139 20.6958 19.1478 21.1132C17.5828 21.7392 13.9311 21.5827 12.2617 21.5827C10.5402 21.5827 6.8885 21.7392 5.37564 21.1132C4.3323 20.6958 3.54979 19.9133 3.13245 18.87C2.50644 17.3571 2.66294 13.7054 2.66294 11.9839C2.66294 10.3145 2.50644 6.6628 3.13245 5.09778C3.54979 4.1066 4.3323 3.32409 5.37564 2.90675C6.8885 2.28075 10.5402 2.43725 12.2617 2.43725C13.9311 2.43725 17.5828 2.28075 19.1478 2.90675C20.139 3.27192 20.9215 4.1066 21.3388 5.09778C21.9649 6.6628 21.8084 10.3145 21.8084 11.9839C21.8084 13.7054 21.9649 17.3571 21.3388 18.87Z" fill="#9D9D9D"/>
</svg>
