<svg width="28" height="29" viewBox="0 0 28 29" fill="none" xmlns="http://www.w3.org/2000/svg">
<path d="M7.76608 3.57883L9.68234 3.0016C10.3148 2.81139 10.9949 2.85754 11.5957 3.13143C12.1966 3.40533 12.6773 3.88825 12.948 4.49014L14.2915 7.47512C14.5246 7.99297 14.5896 8.57078 14.4773 9.12741C14.365 9.68405 14.081 10.1916 13.6652 10.5787L11.6204 12.4824C11.3463 12.7423 11.5541 13.7555 12.5553 15.4891C13.5574 17.2238 14.332 17.9097 14.6892 17.803L17.3682 16.9846C17.9112 16.8186 18.4926 16.8266 19.0309 17.0074C19.5691 17.1882 20.0373 17.5327 20.3697 17.9927L22.279 20.6367C22.6647 21.1706 22.8433 21.8263 22.7816 22.4818C22.7199 23.1373 22.4222 23.7482 21.9437 24.2009L20.4676 25.5975C19.9911 26.0484 19.4035 26.3649 18.7646 26.5147C18.1257 26.6646 17.4585 26.6424 16.831 26.4505C13.7385 25.5046 10.8744 22.6976 8.20038 18.0689C5.52038 13.4332 4.50833 9.5231 5.2137 6.32857C5.35596 5.68487 5.66748 5.09073 6.11613 4.60739C6.56478 4.12404 7.13433 3.76899 7.76608 3.57883Z" fill="#9D9D9D"/>
</svg>
