<svg width="26" height="24" viewBox="0 0 26 24" fill="none" xmlns="http://www.w3.org/2000/svg">
<path d="M25.4567 3.75519C25.1577 2.27706 24.2767 1.11294 23.158 0.717875C21.1304 0 13 0 13 0C13 0 4.86961 0 2.84197 0.717875C1.72334 1.113 0.842317 2.27706 0.543295 3.75519C0 6.43438 0 12.0243 0 12.0243C0 12.0243 0 17.6141 0.543295 20.2933C0.842317 21.7714 1.72334 22.8871 2.84197 23.2821C4.86961 24 13 24 13 24C13 24 21.1304 24 23.158 23.2821C24.2767 22.8871 25.1577 21.7714 25.4567 20.2933C26 17.6141 26 12.0243 26 12.0243C26 12.0243 26 6.43438 25.4567 3.75519ZM10.3409 17.0994V6.94906L17.1363 12.0244L10.3409 17.0994Z" fill="white"/>
</svg>
